<svg xmlns="http://www.w3.org/2000/svg" width="24" height="25" fill="none">
  <path fill="#919191" d="M21 3.5h-2a1 1 0 0 1-1-1 1 1 0 1 0-2 0v4a1 1 0 1 0 2 0 1 1 0 0 1 1-1h.5A1.5 1.5 0 0 1 21 7v11.5a2 2 0 0 1-2 2H5a2 2 0 0 1-2-2v-12a1 1 0 0 1 1-1 1 1 0 0 0 0-2H3a2 2 0 0 0-2 2v15a2 2 0 0 0 2 2h18a2 2 0 0 0 2-2v-15a2 2 0 0 0-2-2z"/>
  <path fill="#919191" d="M8 6.5a1 1 0 0 1 1-1h5a1 1 0 1 0 0-2H9a1 1 0 0 1-1-1 1 1 0 0 0-2 0v4a1 1 0 0 0 2 0zM5 11.5a2 2 0 1 0 4 0 2 2 0 0 0-4 0zM10 11.5a2 2 0 1 0 4 0 2 2 0 0 0-4 0zM15 11.5a2 2 0 1 0 4 0 2 2 0 0 0-4 0zM5 16.5a2 2 0 1 0 4 0 2 2 0 0 0-4 0zM10 16.5a2 2 0 1 0 4 0 2 2 0 0 0-4 0z"/>
</svg>
