<svg xmlns="http://www.w3.org/2000/svg" width="17" height="18" fill="none">
  <path fill="#C6007E" d="M16.943 17.01L8.777.647c-.096-.196-.432-.196-.552 0L.036 17.059c-.048.098-.048.22 0 .294.048.098.144.147.264.147h16.378a.321.321 0 0 0 .313-.318c.024-.05 0-.123-.048-.172zM8.2 12.062V5.693c0-.171.192-.318.36-.318.168 0 .36.147.36.318v6.369c0 .171-.192.318-.36.318-.168 0-.36-.147-.36-.318zm1.249 2.327c0 .514-.408.93-.913.93a.921.921 0 0 1-.912-.93c0-.514.408-.93.912-.93.505 0 .913.416.913.93z"/>
</svg>
